<svg width="11" height="9" viewBox="0 0 11 9" fill="none" xmlns="http://www.w3.org/2000/svg">
<path d="M1.5 2.5V1.5C1.5 0.675 2.175 0 3 0H8C8.825 0 9.5 0.675 9.5 1.5V2.5C10.325 2.5 11 3.175 11 4V6.5C11 7.325 10.325 8 9.5 8V8.5C9.5 8.775 9.275 9 9 9C8.725 9 8.5 8.775 8.5 8.5V8H2.5V8.5C2.5 8.775 2.275 9 2 9C1.725 9 1.5 8.775 1.5 8.5V8C0.675 8 0 7.325 0 6.5V4C0 3.175 0.675 2.5 1.5 2.5ZM8.5 1.5C8.5 1.225 8.275 1 8 1H3C2.725 1 2.5 1.225 2.5 1.5V2.89C2.805 3.165 3 3.56 3 4V5H8V4C8 3.56 8.195 3.165 8.5 2.89V1.5ZM0.999999 6.5C0.999999 6.775 1.225 7 1.5 7H9.5C9.775 7 10 6.775 10 6.5V4C10 3.725 9.775 3.5 9.5 3.5C9.225 3.5 9 3.725 9 4V6H2V4C2 3.725 1.775 3.5 1.5 3.5C1.225 3.5 0.999999 3.725 0.999999 4V6.5Z" fill="#4F4F4F"/>
</svg>
