<svg width="12" height="8" viewBox="0 0 12 8" fill="none" xmlns="http://www.w3.org/2000/svg">
<path d="M6 1.4782e-05C5.89713 -0.000121117 5.79525 0.0208998 5.70021 0.0618696C5.60518 0.102839 5.51886 0.162951 5.44621 0.238748L0.224901 5.67222C0.0799993 5.82549 -0.000834795 6.03213 6.50174e-06 6.24714C0.000847799 6.46214 0.0832963 6.66809 0.229393 6.82012C0.37549 6.97216 0.573398 7.05796 0.780008 7.05883C0.986618 7.05971 1.18519 6.97559 1.33247 6.8248L6 1.96768L10.6675 6.8248C10.8148 6.97559 11.0134 7.05971 11.22 7.05883C11.4266 7.05796 11.6245 6.97216 11.7706 6.82012C11.9167 6.66809 11.9992 6.46214 12 6.24714C12.0008 6.03213 11.92 5.82549 11.7751 5.67222L6.55379 0.238748C6.48114 0.162951 6.39482 0.102839 6.29979 0.0618696C6.20475 0.0208998 6.10287 -0.000121117 6 1.4782e-05Z" fill="black"/>
</svg>
