<svg width="12" height="12" viewBox="0 0 12 12" fill="none" xmlns="http://www.w3.org/2000/svg">
<path fill-rule="evenodd" clip-rule="evenodd" d="M0.444616 0.494593C0.562646 0.376563 0.718822 0.306347 0.878787 0.299392C1.03875 0.292437 1.1894 0.349313 1.29759 0.457507L11.0883 10.2482C11.1965 10.3564 11.2534 10.5071 11.2464 10.667C11.2395 10.827 11.1692 10.9832 11.0512 11.1012C10.9332 11.2192 10.777 11.2894 10.617 11.2964C10.4571 11.3034 10.3064 11.2465 10.1982 11.1383L0.40753 1.34757C0.299336 1.23938 0.24246 1.08873 0.249415 0.928763C0.25637 0.768799 0.326586 0.612623 0.444616 0.494593Z" fill="black"/>
<path fill-rule="evenodd" clip-rule="evenodd" d="M11.1009 0.445104C11.2189 0.563134 11.2891 0.71931 11.2961 0.879275C11.303 1.03924 11.2461 1.18989 11.138 1.29808L1.34724 11.0888C1.23905 11.197 1.0884 11.2539 0.928434 11.2469C0.76847 11.24 0.612294 11.1697 0.494264 11.0517C0.376234 10.9337 0.306017 10.7775 0.299063 10.6175C0.292108 10.4576 0.348984 10.3069 0.457178 10.1987L10.2479 0.408018C10.3561 0.299824 10.5067 0.242948 10.6667 0.249903C10.8267 0.256858 10.9828 0.327075 11.1009 0.445104Z" fill="black"/>
</svg>
