<svg width="8" height="10" viewBox="0 0 8 10" fill="none" xmlns="http://www.w3.org/2000/svg">
<path d="M6.12132 1.80717C5.5968 1.28278 4.89662 0.971266 4.15592 0.93276C3.41522 0.894253 2.68652 1.13148 2.11044 1.59866C1.53437 2.06583 1.15177 2.72984 1.03648 3.46252C0.921185 4.1952 1.08138 4.94462 1.48614 5.56613L3.57179 8.76796C3.6182 8.8392 3.68166 8.89774 3.75642 8.93826C3.83117 8.97878 3.91486 9 3.99989 9C4.08492 9 4.16861 8.97878 4.24336 8.93826C4.31812 8.89774 4.38158 8.8392 4.42799 8.76796L6.51371 5.56613C6.88928 4.98959 7.05526 4.30146 6.98382 3.6171C6.91238 2.93273 6.60787 2.29372 6.12132 1.80717ZM6.0512 5.26483L3.9999 8.41381L1.94858 5.26483C1.32068 4.30092 1.45535 3.01096 2.26879 2.19748C2.49612 1.97015 2.76601 1.78982 3.06303 1.66678C3.36005 1.54375 3.6784 1.48042 3.9999 1.48042C4.3214 1.48042 4.63975 1.54375 4.93677 1.66678C5.23379 1.78982 5.50368 1.97015 5.73101 2.19748C6.54445 3.01096 6.6791 4.30092 6.0512 5.26483Z" fill="#4F4F4F" stroke="#4F4F4F" stroke-width="0.2"/>
</svg>
