<svg width="8" height="9" viewBox="0 0 8 9" fill="none" xmlns="http://www.w3.org/2000/svg">
<path d="M4.125 8.84625V7.49625C2.24625 7.39875 0.75 5.83875 0.75 3.9375C0.75 1.9725 2.3475 0.375 4.3125 0.375C6.2775 0.375 7.875 1.9725 7.875 3.9375C7.875 5.79375 6.585 7.66125 4.66125 8.5875L4.125 8.84625ZM4.3125 1.125C2.76 1.125 1.5 2.385 1.5 3.9375C1.5 5.49 2.76 6.75 4.3125 6.75H4.875V7.6125C6.24 6.75 7.125 5.3325 7.125 3.9375C7.125 2.385 5.865 1.125 4.3125 1.125ZM3.9375 5.4375H4.6875V6.1875H3.9375V5.4375ZM4.6875 4.875H3.9375C3.9375 3.65625 5.0625 3.75 5.0625 3C5.0625 2.5875 4.725 2.25 4.3125 2.25C3.9 2.25 3.5625 2.5875 3.5625 3H2.8125C2.8125 2.17125 3.48375 1.5 4.3125 1.5C5.14125 1.5 5.8125 2.17125 5.8125 3C5.8125 3.9375 4.6875 4.03125 4.6875 4.875Z" fill="#4F4F4F"/>
</svg>
